<svg width="619" height="241" viewBox="0 0 619 241" fill="none" xmlns="http://www.w3.org/2000/svg">
<path d="M55.319 151.626C49.1828 151.908 43.1787 149.785 38.5845 145.707C36.1102 143.244 34.1812 140.289 32.9223 137.032C31.6634 133.776 31.1028 130.291 31.2768 126.805V31.4152H47.1344V126.805C46.966 128.096 47.0581 129.408 47.4054 130.663C47.7526 131.918 48.348 133.091 49.1562 134.112C50.8936 135.421 53.0553 136.037 55.2216 135.842C57.3423 136.034 59.4571 135.416 61.1408 134.112C61.9748 133.102 62.5965 131.935 62.969 130.679C63.3415 129.424 63.4571 128.106 63.3088 126.805V49.4651H79.1908V126.805C79.329 130.288 78.7519 133.762 77.4951 137.013C76.2382 140.264 74.3282 143.223 71.8831 145.707C67.3014 149.691 61.3879 151.804 55.319 151.626V151.626Z" fill="#646464"/>
<path d="M175.53 49.4648V150.481H159.648V100.107L146.811 134.599H137.579L124.742 100.107V150.481H108.86V49.4648H117.946L142.183 105.49L166.542 49.4648H175.53Z" fill="#646464"/>
<path d="M229.778 150.482H205.833V49.4652H227.61C233.654 49.1823 239.584 51.1821 244.223 55.0677C246.692 57.2573 248.576 60.0287 249.703 63.1305C251.008 66.5419 251.645 70.1723 251.579 73.8241V83.2022C251.579 90.0227 249.655 95.2355 245.806 98.7919C251.084 102.543 253.731 108.6 253.747 116.964V126.196C253.838 129.802 253.2 133.389 251.871 136.743C250.749 139.848 248.865 142.62 246.391 144.806C241.779 148.746 235.836 150.776 229.778 150.482V150.482ZM221.666 92.1663H227.561C229.681 92.3462 231.791 91.7296 233.48 90.4368C234.314 89.427 234.936 88.2594 235.309 87.0038C235.681 85.7482 235.797 84.4304 235.648 83.1292V73.8484C235.89 71.3607 235.166 68.8753 233.627 66.9061C231.859 65.6696 229.707 65.1078 227.561 65.3228H221.666V92.1663ZM221.666 134.6H229.729C231.891 134.826 234.063 134.264 235.843 133.016C236.616 132.075 237.193 130.989 237.54 129.822C237.888 128.655 237.998 127.43 237.865 126.22V116.988C238.013 115.687 237.898 114.369 237.525 113.113C237.153 111.858 236.531 110.69 235.697 109.68C234.008 108.388 231.897 107.771 229.778 107.951H221.666V134.6Z" fill="#646464"/>
<path d="M291.552 105.88C290.677 105.34 289.861 104.712 289.116 104.004C284.244 99.5712 281.808 93.2866 281.808 85.102V74.2866C281.808 66.167 284.244 59.9068 289.116 55.5059C293.695 51.3911 299.699 49.2239 305.85 49.4649H329.82V150.481H313.938V109.924H306.63L298.397 150.481H282.563L291.552 105.88ZM297.885 85.102C297.737 86.4032 297.852 87.721 298.225 88.9766C298.597 90.2322 299.219 91.3998 300.053 92.4097C301.745 93.6961 303.853 94.312 305.972 94.1391H314.059V65.3226H305.972C303.853 65.1497 301.745 65.7656 300.053 67.052C298.397 69.108 297.619 71.7335 297.885 74.3597V85.102Z" fill="#646464"/>
<path d="M373.933 65.3225V90.7288H391.837V106.611H373.933V134.599H399.924V150.481H358.076V49.4648H399.924V65.3225H373.933Z" fill="#646464"/>
<path d="M470.346 150.481H428.498V49.4648H444.355V134.721H470.346V150.481Z" fill="#646464"/>
<path d="M538.599 150.481H496.751V49.4648H512.608V134.721H538.599V150.481Z" fill="#646464"/>
<path d="M599.765 134.453H581.593L578.694 150.481H562.544L582.738 49.4648H598.62L618.716 150.481H602.566L599.765 134.453ZM597.037 118.571L590.679 82.3494L584.321 118.571H597.037Z" fill="#646464"/>
<path d="M79.1908 38.6254H63.1383C62.9416 32.5125 60.375 26.7158 55.9814 22.4612C51.5877 18.2066 45.7114 15.8277 39.5954 15.8277C33.4793 15.8277 27.6031 18.2066 23.2094 22.4612C18.8157 26.7158 16.2492 32.5125 16.0525 38.6254H0C0.256269 28.2941 4.54039 18.4721 11.938 11.2557C19.3357 4.03925 29.2609 0 39.5954 0C49.9299 0 59.8551 4.03925 67.2527 11.2557C74.6504 18.4721 78.9345 28.2941 79.1908 38.6254Z" fill="#646464"/>
<path d="M289.902 226.176C286.505 226.176 284.057 225.426 282.558 223.928C281.059 222.379 280.285 219.856 280.235 216.359C280.135 209.315 280.085 202.445 280.085 195.751C280.085 189.007 280.135 182.112 280.235 175.068C280.285 171.821 281.059 169.373 282.558 167.724C284.057 166.076 286.505 165.251 289.902 165.251C293.299 165.251 295.747 166.026 297.246 167.574C298.794 169.073 299.619 171.571 299.719 175.068C299.769 176.017 299.794 177.216 299.794 178.665C299.794 180.114 299.769 181.563 299.719 183.012C299.719 184.41 299.719 185.584 299.719 186.534H294.698C294.748 184.635 294.773 182.612 294.773 180.464C294.823 178.266 294.823 176.217 294.773 174.319C294.723 172.57 294.323 171.321 293.574 170.572C292.824 169.823 291.6 169.448 289.902 169.448C288.253 169.448 287.054 169.823 286.305 170.572C285.605 171.321 285.231 172.57 285.181 174.319C285.031 181.713 284.956 188.832 284.956 195.676C284.956 202.52 285.031 209.664 285.181 217.108C285.231 218.857 285.63 220.106 286.38 220.855C287.129 221.604 288.303 221.979 289.902 221.979C291.7 221.979 292.999 221.604 293.799 220.855C294.598 220.106 295.023 218.857 295.073 217.108C295.122 215.06 295.122 212.887 295.073 210.589C295.073 208.291 295.048 206.117 294.998 204.069H300.018C300.068 206.167 300.093 208.216 300.093 210.214C300.093 212.212 300.068 214.261 300.018 216.359C299.919 219.856 299.094 222.379 297.545 223.928C295.997 225.426 293.449 226.176 289.902 226.176ZM330.034 226.176C326.587 226.176 324.089 225.426 322.54 223.928C321.041 222.429 320.267 219.931 320.217 216.434C320.067 209.29 319.992 202.395 319.992 195.751C319.992 189.057 320.067 182.112 320.217 174.918C320.267 171.421 321.041 168.923 322.54 167.425C324.089 165.926 326.587 165.176 330.034 165.176C333.531 165.176 336.029 165.926 337.528 167.425C339.026 168.923 339.826 171.421 339.926 174.918C340.026 182.112 340.076 189.057 340.076 195.751C340.076 202.395 340.026 209.29 339.926 216.434C339.826 219.931 339.026 222.429 337.528 223.928C336.029 225.426 333.531 226.176 330.034 226.176ZM330.034 221.904C331.782 221.904 333.031 221.555 333.781 220.855C334.53 220.156 334.905 218.932 334.905 217.183C335.155 209.839 335.255 202.62 335.205 195.526C335.205 188.432 335.105 181.313 334.905 174.169C334.905 172.42 334.53 171.196 333.781 170.497C333.031 169.798 331.782 169.448 330.034 169.448C328.335 169.448 327.111 169.798 326.362 170.497C325.613 171.196 325.213 172.42 325.163 174.169C324.963 181.313 324.863 188.432 324.863 195.526C324.863 202.62 324.963 209.839 325.163 217.183C325.213 218.932 325.613 220.156 326.362 220.855C327.111 221.555 328.335 221.904 330.034 221.904ZM371.039 226.176C367.592 226.176 365.119 225.426 363.62 223.928C362.121 222.379 361.297 219.831 361.147 216.284C361.097 213.986 361.072 211.963 361.072 210.214C361.072 208.415 361.147 206.342 361.297 203.994H366.018C365.918 206.192 365.868 208.39 365.868 210.589C365.868 212.787 365.918 214.935 366.018 217.033C366.118 218.732 366.543 219.981 367.292 220.78C368.041 221.53 369.29 221.904 371.039 221.904C372.687 221.904 373.861 221.53 374.561 220.78C375.31 219.981 375.735 218.732 375.835 217.033C375.935 215.634 375.985 214.385 375.985 213.286C375.985 212.187 375.96 211.063 375.91 209.914C375.91 208.715 375.885 207.341 375.835 205.793C375.785 203.894 375.51 202.321 375.011 201.072C374.561 199.823 373.637 199.023 372.238 198.674L368.266 197.624C365.369 196.925 363.47 195.651 362.571 193.803C361.672 191.954 361.172 189.306 361.072 185.859C361.022 184.211 360.997 182.437 360.997 180.539C361.047 178.64 361.097 176.792 361.147 174.993C361.197 171.496 361.971 168.998 363.47 167.5C364.969 165.951 367.492 165.176 371.039 165.176C374.336 165.176 376.709 165.951 378.158 167.5C379.657 168.998 380.481 171.496 380.631 174.993C380.631 176.392 380.631 178.116 380.631 180.164C380.631 182.162 380.606 184.261 380.556 186.459H375.76C375.81 184.46 375.835 182.437 375.835 180.389C375.835 178.34 375.81 176.292 375.76 174.244C375.66 171.047 374.061 169.448 370.964 169.448C369.265 169.448 368.041 169.848 367.292 170.647C366.593 171.396 366.193 172.595 366.093 174.244C365.993 176.192 365.943 178.141 365.943 180.089C365.943 181.987 365.993 183.911 366.093 185.859C366.143 188.107 366.393 189.781 366.842 190.88C367.342 191.979 368.341 192.729 369.84 193.128L373.512 194.027C376.459 194.727 378.383 196.026 379.282 197.924C380.231 199.823 380.756 202.445 380.856 205.793C380.906 207.341 380.931 208.64 380.931 209.689C380.931 210.739 380.906 211.763 380.856 212.762C380.856 213.761 380.856 214.935 380.856 216.284C380.706 219.831 379.881 222.379 378.383 223.928C376.884 225.426 374.436 226.176 371.039 226.176ZM401.783 225.651V165.701H411.375L414.597 190.281L417.37 220.93H418.718L421.491 190.281L424.714 165.701H434.306V225.651H429.36V207.891L430.109 170.197H428.535L424.339 208.415L421.866 225.426H414.222L411.749 208.415L407.553 170.197H405.979L406.803 208.266V225.651H401.783ZM455.741 225.651V165.701H472.602V170.197H460.687V193.278H471.852V197.699H460.687V221.155H472.602V225.651H455.741ZM497.829 225.651V170.197H490.185V165.701H510.418V170.197H502.849V225.651H497.829ZM528.896 225.651V165.701H533.841V225.651H528.896ZM564.788 226.176C561.391 226.176 558.943 225.426 557.444 223.928C555.946 222.379 555.171 219.856 555.121 216.359C555.022 209.315 554.972 202.445 554.972 195.751C554.972 189.007 555.022 182.112 555.121 175.068C555.171 171.821 555.946 169.373 557.444 167.724C558.943 166.076 561.391 165.251 564.788 165.251C568.186 165.251 570.634 166.026 572.132 167.574C573.681 169.073 574.505 171.571 574.605 175.068C574.655 176.017 574.68 177.216 574.68 178.665C574.68 180.114 574.655 181.563 574.605 183.012C574.605 184.41 574.605 185.584 574.605 186.534H569.584C569.634 184.635 569.659 182.612 569.659 180.464C569.709 178.266 569.709 176.217 569.659 174.319C569.609 172.57 569.21 171.321 568.46 170.572C567.711 169.823 566.487 169.448 564.788 169.448C563.14 169.448 561.941 169.823 561.191 170.572C560.492 171.321 560.117 172.57 560.067 174.319C559.917 181.713 559.842 188.832 559.842 195.676C559.842 202.52 559.917 209.664 560.067 217.108C560.117 218.857 560.517 220.106 561.266 220.855C562.016 221.604 563.19 221.979 564.788 221.979C566.587 221.979 567.886 221.604 568.685 220.855C569.484 220.106 569.909 218.857 569.959 217.108C570.009 215.06 570.009 212.887 569.959 210.589C569.959 208.291 569.934 206.117 569.884 204.069H574.905C574.955 206.167 574.98 208.216 574.98 210.214C574.98 212.212 574.955 214.261 574.905 216.359C574.805 219.856 573.981 222.379 572.432 223.928C570.883 225.426 568.335 226.176 564.788 226.176ZM604.92 226.176C601.473 226.176 599 225.426 597.502 223.928C596.003 222.379 595.179 219.831 595.029 216.284C594.979 213.986 594.954 211.963 594.954 210.214C594.954 208.415 595.029 206.342 595.179 203.994H599.9C599.8 206.192 599.75 208.39 599.75 210.589C599.75 212.787 599.8 214.935 599.9 217.033C600 218.732 600.424 219.981 601.174 220.78C601.923 221.53 603.172 221.904 604.92 221.904C606.569 221.904 607.743 221.53 608.442 220.78C609.192 219.981 609.617 218.732 609.716 217.033C609.816 215.634 609.866 214.385 609.866 213.286C609.866 212.187 609.841 211.063 609.791 209.914C609.791 208.715 609.766 207.341 609.716 205.793C609.666 203.894 609.392 202.321 608.892 201.072C608.442 199.823 607.518 199.023 606.119 198.674L602.148 197.624C599.25 196.925 597.352 195.651 596.452 193.803C595.553 191.954 595.054 189.306 594.954 185.859C594.904 184.211 594.879 182.437 594.879 180.539C594.929 178.64 594.979 176.792 595.029 174.993C595.079 171.496 595.853 168.998 597.352 167.5C598.85 165.951 601.373 165.176 604.92 165.176C608.218 165.176 610.591 165.951 612.039 167.5C613.538 168.998 614.363 171.496 614.512 174.993C614.512 176.392 614.512 178.116 614.512 180.164C614.512 182.162 614.487 184.261 614.437 186.459H609.641C609.691 184.46 609.716 182.437 609.716 180.389C609.716 178.34 609.691 176.292 609.641 174.244C609.542 171.047 607.943 169.448 604.845 169.448C603.147 169.448 601.923 169.848 601.174 170.647C600.474 171.396 600.074 172.595 599.975 174.244C599.875 176.192 599.825 178.141 599.825 180.089C599.825 181.987 599.875 183.911 599.975 185.859C600.024 188.107 600.274 189.781 600.724 190.88C601.223 191.979 602.223 192.729 603.721 193.128L607.393 194.027C610.341 194.727 612.264 196.026 613.164 197.924C614.113 199.823 614.637 202.445 614.737 205.793C614.787 207.341 614.812 208.64 614.812 209.689C614.812 210.739 614.787 211.763 614.737 212.762C614.737 213.761 614.737 214.935 614.737 216.284C614.587 219.831 613.763 222.379 612.264 223.928C610.766 225.426 608.318 226.176 604.92 226.176Z" fill="#646464"/>
</svg>
